<?xml version="1.0" encoding="utf-8"?>
<!-- Generator: Adobe Illustrator 16.0.0, SVG Export Plug-In . SVG Version: 6.00 Build 0)  -->
<!DOCTYPE svg PUBLIC "-//W3C//DTD SVG 1.1//EN" "http://www.w3.org/Graphics/SVG/1.1/DTD/svg11.dtd">
<svg version="1.1" id="Layer_1" xmlns="http://www.w3.org/2000/svg" xmlns:xlink="http://www.w3.org/1999/xlink" x="0px" y="0px"
	 width="283.46px" height="283.46px" viewBox="0 0 283.46 283.46" enable-background="new 0 0 283.46 283.46" xml:space="preserve">
<g>
	<path fill="#010202" d="M62.456,239.208c-0.006,0.064,0.003,0.155,0.018,0.243c10.079,8.208,21.438,14.859,33.757,19.658
		c0.126-0.072,0.239-0.117,0.351-0.182c34.601-19.939,48.769-61.576,33.97-98.146C91.465,166.21,62.46,199.278,62.456,239.208
		 M152.797,122.64c-14.792-36.577-0.623-78.211,33.965-98.144c0.15-0.087,0.298-0.15,0.455-0.241
		c12.259,4.755,23.6,11.36,33.645,19.493c0.002,0.172,0.008,0.305,0.011,0.459C220.875,84.132,191.87,117.199,152.797,122.64
		 M17.531,122.009c-0.136,0.099-0.282,0.183-0.433,0.27c-2.009,12.993-1.946,26.11,0.076,38.893
		c0.133,0.079,0.247,0.168,0.386,0.243c34.581,19.96,77.713,11.378,101.962-19.736C95.242,110.561,52.099,102.012,17.531,122.009
		 M186.607,259.12c0.067,0.057,0.141,0.093,0.207,0.132c12.154-4.644,23.611-11.162,33.928-19.433
		c0.001-0.134,0.01-0.259,0.008-0.395c0.033-39.925-28.937-73.017-68.018-78.47C137.897,197.497,152.026,239.156,186.607,259.12
		 M265.845,161.321c0.145-0.084,0.289-0.167,0.425-0.268c2.012-12.991,1.962-26.119-0.053-38.883
		c-0.134-0.082-0.267-0.16-0.395-0.242c-34.582-19.961-77.707-11.383-101.961,19.736
		C188.128,172.772,231.284,181.31,265.845,161.321 M130.832,122.596c-39.084-5.473-68.044-38.566-67.999-78.483
		c-0.004-0.174,0-0.351-0.003-0.522c10.25-8.23,21.641-14.728,33.709-19.386c0.139,0.075,0.286,0.146,0.419,0.225
		C131.531,44.395,145.658,86.037,130.832,122.596"/>
</g>
</svg>
