<svg version="1" xmlns="http://www.w3.org/2000/svg" width="466.667" height="466.667" viewBox="0 0 350.000000 350.000000"><path d="M188.7 48.7l-11.7.4.3 3.2c.2 1.8 1.2 9.9 2.1 18.2 1 8.2 2.2 16 2.7 17.2.8 2.3 1.2 2.3 18 2.3 16.3 0 17.1.1 16.6 1.9-.3 1.4 1.2 3.1 6 6.7l6.5 4.9-.6 7.5c-.4 4.1-.9 8.4-1.1 9.5-.2 1.1-.7 6.5-1 12-.5 8.7-.9 10.2-2.8 11.7-1.2 1-2.6 1.8-3 1.8-.4 0-4.9 2-10 4.4-5.1 2.4-11.9 5.6-15.2 7.1-3.3 1.5-10.7 5-16.4 7.7-7.5 3.6-10.9 4.8-12.2 4.1-1-.4-5.1-3.8-9.1-7.4-4-3.6-13.7-12-21.4-18.5-7.8-6.5-17.1-14.6-20.8-17.8l-6.7-5.9-2.4 2.3c-1.4 1.3-2.5 2.9-2.5 3.7 0 .7-.4 1.3-.9 1.3s-9.5 10.9-20.1 24.2c-10.6 13.4-20.3 25.3-21.6 26.6-1.3 1.3-2.4 2.6-2.4 3 0 .6-2.9 4.2-8.3 10.2-6.2 6.9-21.7 27.2-21.7 28.3 0 .8 2.3 3.4 5.1 5.8 2.7 2.4 5.6 4.9 6.3 5.6.8.7 13 10.5 27.2 21.8 14.3 11.4 28.6 22.8 31.9 25.5 3.3 2.7 7 5.7 8.3 6.7 1.2 1 4.1 3.5 6.4 5.5 6.5 5.9 7.4 5.9 13.5-.6 3-3.1 12.2-13.9 20.5-23.9 8.4-10 15.7-18.5 16.2-18.9.7-.5 5.2 7.5 12.1 21.5 10.2 20.5 11.2 22.2 13.5 21.9 2.5-.3 7.1-2.5 34.5-16.7 24.8-12.8 47.2-24.4 53.9-27.9 6.2-3.3 7.5-4.9 5.9-7.5-.5-.9-2.5-4.3-4.3-7.6-1.8-3.3-3.6-6.5-4-7-.4-.6-2.1-3.5-3.7-6.5-8.8-16.2-10.7-19.6-11.6-20.8-.5-.7-.8-1.4-.6-1.6.2-.3 8.3 1.1 17.9 3 16.8 3.4 22.6 4.2 23.4 3.3.4-.3 4.4-26.4 6.1-39.9.4-2.5 1.5-10.4 2.6-17.5 3.1-20 4.8-31.9 4.9-33.2 0-1.2-1.1-1.4-18.5-3.3-15-1.7-14.5-1.1-7-9.4 5.8-6.5 8-10.6 5.7-10.6-.4 0-2.8-1.9-5.2-4.3-2.5-2.3-8.7-7.8-13.9-12.2-5.2-4.4-12-10.3-15-13.2-6.8-6.3-10.6-9.3-11.8-9.3-.4.1-7.7 9.3-16.2 20.6-8.5 11.2-15.5 20.3-15.6 20.2-.3-.3-.9-6.6-2-19.8-.4-4.1-.8-8.9-1-10.5-.1-1.7-.3-4.7-.4-6.8L214 48l-6.7.2c-3.8.1-12.1.4-18.6.5z"/><path d="M143.3 73.8c-2.9 3.1-6.1 6.9-7.2 8.3l-2.1 2.7 7.7 7.6c4.3 4.2 8.1 7.6 8.6 7.6 1.1 0 10.9-8.7 13.6-12.2l2.1-2.6-8.2-8.6c-4.5-4.7-8.4-8.6-8.7-8.5-.3 0-2.9 2.6-5.8 5.7zM146.7 111.3l-6.9 1 .5 3.1c.3 1.7.9 5 1.2 7.3.8 4.9 1.9 5.2 10.2 3.2l4.5-1.2-.6-4.5c-.3-2.5-.6-5.8-.6-7.3 0-1.6-.3-2.8-.7-2.8-.5.1-3.9.6-7.6 1.2zM170.4 137.2c-.4.7-1.4 2.3-2.2 3.5-1.2 2-1.1 2.3 1.7 3.7 4.1 2.2 4.6 2.1 6.9-1.7l1.9-3.3-2.9-1.7c-3.5-2-4.4-2.1-5.4-.5z"/></svg>